<svg xmlns="http://www.w3.org/2000/svg" viewBox="0 0 800 500"><rect width="800" height="500" rx="24" fill="#fff"/><text x="40" y="60" font-family="Arial" font-size="28" font-weight="700">Sales Performance</text><text x="40" y="95" font-family="Arial" font-size="17">31-day dashboard snapshot</text><g fill="#6d9ed3"><rect x="60" y="285" width="20" height="95"/><rect x="100" y="315" width="20" height="65"/><rect x="140" y="260" width="20" height="120"/><rect x="180" y="220" width="20" height="160"/><rect x="220" y="275" width="20" height="105"/><rect x="260" y="240" width="20" height="140"/><rect x="300" y="190" width="20" height="190"/><rect x="340" y="250" width="20" height="130"/><rect x="380" y="205" width="20" height="175"/><rect x="420" y="270" width="20" height="110"/><rect x="460" y="220" width="20" height="160"/><rect x="500" y="240" width="20" height="140"/><rect x="540" y="185" width="20" height="195"/><rect x="580" y="260" width="20" height="120"/><rect x="620" y="230" width="20" height="150"/><rect x="660" y="250" width="20" height="130"/></g><line x1="50" y1="390" x2="750" y2="390" stroke="#dbe2ec"/><text x="50" y="435" font-family="Arial" font-size="16">Today</text><text x="700" y="435" text-anchor="end" font-family="Arial" font-size="16" font-weight="700">$25.86</text><text x="50" y="465" font-family="Arial" font-size="16">Last 31 days</text><text x="700" y="465" text-anchor="end" font-family="Arial" font-size="16" font-weight="700">$20,303.10</text></svg>